<?xml version="1.0" encoding="utf-8"?>
<!-- Generator: Adobe Illustrator 19.2.0, SVG Export Plug-In . SVG Version: 6.00 Build 0)  -->
<svg version="1.1" xmlns="http://www.w3.org/2000/svg" xmlns:xlink="http://www.w3.org/1999/xlink" x="0px" y="0px"
	 viewBox="0 0 191 216" style="enable-background:new 0 0 191 216;" xml:space="preserve">
<style type="text/css">
	.st0{display:none;}
	.st1{display:inline;fill:#333338;}
	.st2{fill:#FFFFFF;stroke:#333338;stroke-width:2.027;stroke-miterlimit:10;}
	.st3{fill:#FFFFFF;stroke:#333338;stroke-miterlimit:10;}
	.st4{opacity:0.95;fill:url(#SVGID_1_);}
	.st5{fill:#333338;}
</style>
<g id="Layer_4" class="st0">
	<rect x="-21" y="-6.3" class="st1" width="297.3" height="258.7"/>
</g>
<g id="Layer_3">
	<path class="st2" d="M177.5,109.5c0,0-63-59.7-81.3-59.7s-81.3,59.7-81.3,59.7"/>
	<polyline class="st2" points="14.9,109.5 67.7,192.3 121.7,192.3 177.5,109.5 	"/>
	<line class="st3" x1="14.9" y1="110.5" x2="177.5" y2="110.5"/>
</g>
<g id="Layer_2">
	<linearGradient id="SVGID_1_" gradientUnits="userSpaceOnUse" x1="65.8504" y1="226.6008" x2="177.7311" y2="32.8177">
		<stop  offset="0" style="stop-color:#E75625"/>
		<stop  offset="1" style="stop-color:#87C540"/>
	</linearGradient>
	<path class="st4" d="M17.6,167.9c0,0,13.8-49.5,53.7-79.7s29.2-58.5,39.8-57.7c10.6,0.8,15.4-20.4,15.4-20.4s9.6-12.2,13.8,11.8
		c4.2,23.9,15.9-9.8,17.5,15.7s17,86.7,12.7,107.5c-4.2,20.8-6.4,61.6-6.4,61.6H31.4"/>
</g>
<g id="Layer_1">
	<polyline class="st2" points="112.1,157.7 177.5,110.5 177.5,211 14.9,211 14.9,110.5 80.4,157.7 	"/>
	<path class="st2" d="M14.9,209.4c0,0,63-59.7,81.3-59.7s81.3,59.7,81.3,59.7"/>
</g>
<g id="Layer_5">
	<circle class="st2" cx="132.3" cy="59.7" r="13.3"/>
	<circle class="st5" cx="132.3" cy="59.7" r="5.3"/>
</g>
</svg>
